<?xml version="1.0" encoding="UTF-8" standalone="no"?>
<!DOCTYPE svg PUBLIC "-//W3C//DTD SVG 1.1//EN" "http://www.w3.org/Graphics/SVG/1.1/DTD/svg11.dtd">
<svg width="100%" height="100%" viewBox="0 0 2481 2481" version="1.1" xmlns="http://www.w3.org/2000/svg" xmlns:xlink="http://www.w3.org/1999/xlink" xml:space="preserve" xmlns:serif="http://www.serif.com/" style="fill-rule:evenodd;clip-rule:evenodd;stroke-linejoin:round;stroke-miterlimit:2;">
    <rect x="0" y="0" width="2480.315" height="2480.315" style="fill:url(#_Linear1);"/>
    <g transform="matrix(0.985425,0,0,1.024924,30.548178,-95.317889)">
        <path d="M850.269,656.122C824.966,574.295 804.265,488.045 795.064,417.275L256.819,417.275C295.922,503.526 318.924,558.814 364.928,687.084L854.869,2018.435C893.972,2124.59 916.974,2199.782 928.475,2257.283L1526.525,2257.283C1538.026,2201.994 1561.028,2126.801 1600.131,2018.435L2087.772,687.084C2145.277,534.487 2165.978,483.622 2198.181,417.275L1657.636,417.275C1650.735,492.468 1634.634,554.391 1604.731,656.122L1271.204,1719.877C1259.703,1761.896 1255.102,1775.165 1227.5,1872.473C1202.198,1779.588 1202.198,1779.588 1183.796,1719.877L850.269,656.122Z" style="fill:rgb(123,126,240);fill-rule:nonzero;"/>
    </g>
    <g transform="matrix(0.298146,0.95452,-0.95452,0.298146,896.522551,495.542739)">
        <path d="M-4.317,357.683L-13.1,412.933L36.2,412.933L44.983,357.683L73.883,357.683L65.1,412.933L114.4,412.933L123.183,357.683L160.583,357.683L160.583,312.35L130.55,312.35L136.783,271.55L174.467,271.55L174.467,226.217L144.15,226.217L152.933,170.967L103.633,170.967L94.85,226.217L65.95,226.217L74.733,170.967L25.433,170.967L16.65,226.217L-20.75,226.217L-20.75,271.55L9.283,271.55L3.05,312.35L-34.633,312.35L-34.633,357.683L-4.317,357.683ZM81.25,312.35L52.35,312.35L58.583,271.55L87.483,271.55L81.25,312.35Z" style="fill:rgb(16,17,20);fill-rule:nonzero;"/>
        <path d="M400.85,169.833C388.95,170.683 379.883,170.967 350.983,170.967L251.817,170.967C230.567,170.967 215.833,170.4 201.383,168.983L201.383,232.45C214.417,231.033 226.033,230.467 247.85,230.467L324.917,230.467C297.15,267.3 284.683,288.267 270.8,321.7C257.767,352.583 254.083,366.75 246.433,412.933L324.35,412.933C330.867,359.95 338.8,330.2 356.367,292.8C368.55,266.167 377.333,253.133 400.85,225.933L400.85,169.833Z" style="fill:rgb(16,17,20);fill-rule:nonzero;"/>
        <path d="M560.083,412.933C612.783,412.933 641.4,389.417 641.4,346.633C641.4,326.8 635.167,311.5 622.7,301.017C614.2,293.367 606.267,290.25 590.4,287.133C603.717,282.883 609.667,280.05 615.9,274.383C627.233,264.75 632.617,250.867 632.617,231.883C632.617,192.783 605.417,170.967 556.967,170.967L478.2,170.967C453.55,170.967 446.467,170.967 433.15,170.117C434.85,186.267 435.417,197.883 435.417,214.6L435.417,369.867C435.417,390.833 434.85,401.6 433.15,413.783C446.75,412.933 454.117,412.933 478.483,412.933L560.083,412.933ZM503.417,263.617L503.417,227.067L545.35,227.067C557.533,227.067 564.333,233.583 564.333,244.917C564.333,256.25 557.25,263.617 545.917,263.617L503.417,263.617ZM503.417,356.267L503.417,313.2L548.183,313.2C562.067,313.2 570.567,321.417 570.567,334.733C570.567,348.05 562.067,356.267 548.467,356.267L503.417,356.267Z" style="fill:rgb(16,17,20);fill-rule:nonzero;"/>
        <path d="M864.1,169.833C852.2,170.683 843.133,170.967 814.233,170.967L715.067,170.967C693.817,170.967 679.083,170.4 664.633,168.983L664.633,232.45C677.667,231.033 689.283,230.467 711.1,230.467L788.167,230.467C760.4,267.3 747.933,288.267 734.05,321.7C721.017,352.583 717.333,366.75 709.683,412.933L787.6,412.933C794.117,359.95 802.05,330.2 819.617,292.8C831.8,266.167 840.583,253.133 864.1,225.933L864.1,169.833Z" style="fill:rgb(16,17,20);fill-rule:nonzero;"/>
        <path d="M966.95,354L966.95,318.583L1022.483,318.583C1043.45,318.583 1055.067,319.15 1068.667,320.567L1068.667,259.367C1052.517,260.783 1040.617,261.35 1022.483,261.35L967.233,261.35L967.233,229.617L1034.95,229.617C1055.35,229.617 1066.967,230.183 1080.567,231.6L1080.567,168.983C1064.7,170.4 1052.517,170.967 1034.95,170.967L941.45,170.967C916.8,170.967 909.717,170.967 896.4,170.117C898.1,183.717 898.667,194.767 898.667,214.6L898.667,369.867C898.667,391.4 898.1,401.6 896.4,413.783C910,412.933 917.367,412.933 941.733,412.933L1038.633,412.933C1059.6,412.933 1071.217,413.5 1084.25,414.917L1084.25,352.017C1070.65,353.433 1059.883,354 1039.2,354L966.95,354Z" style="fill:rgb(16,17,20);fill-rule:nonzero;"/>
        <path d="M1182,326.517L1233.85,326.517C1254.25,326.517 1265.867,327.083 1279.467,328.5L1279.467,267.583C1266.15,269 1255.1,269.567 1233.85,269.567L1182,269.567L1182,230.75L1246.883,230.75C1267.283,230.75 1278.9,231.317 1292.5,232.733L1292.5,168.983C1279.183,170.4 1268.133,170.967 1246.6,170.967L1156.217,170.967C1131.567,170.967 1124.483,170.967 1111.167,170.117C1112.867,184 1113.433,193.633 1113.433,214.6L1113.433,367.6C1113.433,388.283 1112.867,399.05 1110.883,412.933L1184.267,412.933C1182.567,400.183 1182,388.85 1182,366.467L1182,326.517Z" style="fill:rgb(16,17,20);fill-rule:nonzero;"/>
        <path d="M1412.067,418.317C1448.05,418.317 1477.8,404.15 1497.067,377.517C1511.517,357.683 1519.733,326.8 1519.733,291.95C1519.733,269.283 1515.767,246.9 1508.4,227.35C1503.867,215.167 1496.5,203.833 1486.583,193.917C1467.883,175.5 1442.1,165.583 1412.35,165.583C1373.817,165.583 1341.8,182.583 1323.383,213.467C1312.333,231.883 1305.25,262.2 1305.25,292.233C1305.25,314.9 1308.933,336.717 1316.583,356.55C1321.117,368.733 1328.483,380.35 1338.117,389.7C1357.1,408.683 1382.317,418.317 1412.067,418.317ZM1412.35,360.8C1387.417,360.8 1375.233,338.7 1375.233,292.233C1375.233,245.483 1387.417,222.817 1412.35,222.817C1437.567,222.817 1449.467,245.2 1449.467,291.95C1449.467,338.983 1437.85,360.8 1412.35,360.8Z" style="fill:rgb(16,17,20);fill-rule:nonzero;"/>
    </g>
    <defs>
        <linearGradient id="_Linear1" x1="0" y1="0" x2="1" y2="0" gradientUnits="userSpaceOnUse" gradientTransform="matrix(2480.314961,0,0,2480.314961,0,1240.15748)"><stop offset="0" style="stop-color:rgb(16,17,20);stop-opacity:1"/><stop offset="1" style="stop-color:rgb(16,17,20);stop-opacity:1"/></linearGradient>
    </defs>
</svg>
